# xmcd
#
# Track frame offsets:
# 151
# 14802
# 34710
# 44792
# 62856
# 77637
# 94833
# 112938
# 140473
# 168379
#
# Disc length: 2610 seconds
#
#
# Revision: 0
# Processed by: cddbd v1.5.2PL0 Copyright (c) Steve Scherf et al.
# Submitted via: FreeRIP 2.60 
#
DISCID=870a300a
DTITLE=Various Artist - Billy Bob's 25th Anniversary
DYEAR=2006
DGENRE=Country
TTITLE0=Night Time Magic
TTITLE1=I Think I'll Just Stay Here and Drink
TTITLE2=If You Got the Money, I Got the Time
TTITLE3=Rose-Colored Glasses
TTITLE4=Lay My Money Down
TTITLE5=Miles And Miles Of Texas
TTITLE6=Take Me Out To The Dancehall
TTITLE7=Delta Dawn
TTITLE8=An Empty Glass (That's The Way The Day Ends)
TTITLE9=Bang My Head
EXTD=
EXTT0=Larry Gatlin and The Gatlin Brothers
EXTT1=Merle Haggard
EXTT2=Willie Nelson
EXTT3=John Conlee
EXTT4=David Allan Coe
EXTT5=Asleep at the Wheel
EXTT6=Pat Green
EXTT7=Tanya Tucker
EXTT8=Gary Stewart
EXTT9=Cross Canadian Ragweed
PLAYORDER=
